<svg width="1000" height="368" viewBox="0 0 193 71" fill="none" xmlns="http://www.w3.org/2000/svg">
<path d="M0.884111 63.9072C0.929886 63.1845 1.20453 62.6426 1.43341 62.2812C0.884111 62.4619 0.655238 62.8684 0.517915 63.9523C0.380591 65.2621 0.105944 68.7849 0.0143944 69.5527C-0.0771548 70.3205 0.289042 70.727 0.517915 70.9528C0.609464 71.0431 0.746788 70.9979 0.884111 70.8625C0.563689 70.456 0.426366 70.0495 0.380591 69.7333C0.289042 69.2817 0.746788 65.6234 0.884111 63.9072Z" fill="#F39325"/>
<path d="M4.54648 62.8681L3.58522 61.6035C3.58522 61.6035 2.66973 62.0552 1.80001 62.1907C1.66268 62.1907 1.57114 62.2358 1.43381 62.281C1.15916 62.6423 0.930291 63.1391 0.884516 63.9069C0.747193 65.6231 0.289447 69.2814 0.426771 69.8234C0.472545 70.1396 0.609869 70.546 0.930291 70.9525C1.25071 70.7267 1.66268 70.1396 1.98311 69.5524C2.44085 68.6491 4.04296 66.0296 4.40916 65.036C4.72958 63.9972 4.54648 62.8681 4.54648 62.8681Z" fill="#2D2F7B"/>
<path d="M17.7756 51.5793C17.9587 50.8567 18.2791 50.405 18.5995 50.0889C18.0044 50.1792 17.7298 50.5405 17.4094 51.6245C17.0432 52.8891 16.1735 56.3215 15.9904 57.0893C15.8073 57.8571 16.0361 58.2636 16.265 58.5797C16.3108 58.6701 16.4481 58.6701 16.6312 58.5797C16.4023 58.1281 16.3108 57.7216 16.3108 57.3603C16.3108 56.7732 17.3636 53.2504 17.7756 51.5793Z" fill="#F39325"/>
<path d="M21.5288 51.1716L20.7965 49.7715C20.7965 49.7715 19.7894 50.0425 18.9655 50.0425C18.8281 50.0425 18.6908 50.0425 18.5993 50.0425C18.2789 50.3586 17.9584 50.8103 17.7753 51.5329C17.3634 53.204 16.3105 56.7268 16.3105 57.2687C16.3105 57.6301 16.3563 58.0365 16.631 58.4882C16.9972 58.3075 17.5007 57.8107 17.9127 57.2687C18.5077 56.4558 20.5218 54.1073 21.0711 53.204C21.5288 52.3007 21.5288 51.1716 21.5288 51.1716Z" fill="#2D2F7B"/>
<path d="M4.54618 59.8428C4.36309 60.0686 3.12717 62.2816 2.85253 62.7784C2.80675 62.8688 2.76098 62.9591 2.76098 63.0494C2.7152 63.3204 2.76098 63.7721 3.31027 64.1334C3.63069 64.3592 4.08844 64.2689 4.31731 63.9527L6.56027 61.017L4.54618 59.8428Z" fill="#A96955"/>
<path d="M22.0325 48.1904C21.8494 48.3711 20.2473 50.3583 19.8811 50.81C19.8354 50.9003 19.7896 50.9455 19.7438 51.0358C19.6523 51.2616 19.6065 51.7584 20.0642 52.2101C20.3389 52.481 20.7966 52.481 21.0713 52.2101L23.4973 49.455L22.0325 48.1904Z" fill="#A96955"/>
<path d="M25.0992 37.6673C25.0992 37.035 28.7153 37.2608 31.8738 36.8995C33.5217 36.7188 34.5287 38.6609 33.3386 39.8803L23.7717 49.5906C23.5886 49.8164 23.2682 49.8616 22.9935 49.7713C22.6273 49.6358 22.078 49.41 21.5745 49.0486C21.2999 48.8228 21.2541 48.4163 21.4372 48.1454L25.8315 41.9579L21.8034 43.087L6.60622 61.6495C6.37735 61.9656 5.91961 62.0108 5.55341 61.8301C5.09566 61.5591 4.50059 61.1527 4.1344 60.6559C3.90552 60.43 3.90552 60.0687 4.08862 59.7977C5.78228 57.2685 14.8914 43.4934 15.3034 42.0482C15.7611 40.4674 17.5463 37.5769 19.1485 37.4866C20.8421 37.3963 25.0992 37.6673 25.0992 37.6673Z" fill="#2D2F7B"/>
<path d="M28.1213 41.9126L27.1143 40.7383H29.8149V41.9126H28.1213Z" fill="#2D2F7B"/>
<path d="M27.1141 40.7383L28.1211 41.9126H25.9697V40.7383H27.1141Z" fill="#2D2F7B"/>
<path d="M23.2238 41.7768L23.0864 41.6865H23.2238V41.7768Z" fill="#2D2F7B"/>
<path d="M23.0857 41.6865L23.223 41.7769V42.8608H22.0786V41.6865H23.0857Z" fill="#2D2F7B"/>
<path d="M45.0561 9.2135L52.7462 3.29699C52.792 3.25182 52.8378 3.20666 52.8378 3.1615L53.6617 0.541971C53.6617 0.451642 53.7533 0.406478 53.7991 0.361314L54.3483 0.0451642C54.3941 0 54.4399 0 54.4857 0L56.1336 0.135493C56.2709 0.135493 56.3624 0.225821 56.4082 0.361314L56.5455 1.12911C56.5455 1.21943 56.5455 1.2646 56.4998 1.35493L56.2709 1.67108C56.2251 1.7614 56.1793 1.8969 56.2709 1.98723C56.3167 2.07755 56.3167 2.21305 56.2251 2.30338C55.9505 2.61953 55.2638 3.25182 54.1653 3.74863C54.1195 3.74863 54.0737 3.7938 54.0737 3.83896L47.1617 11.2459C47.0702 11.3814 46.8413 11.3814 46.7498 11.2459L45.0561 9.61998C44.9188 9.52965 44.9188 9.30383 45.0561 9.2135Z" fill="#A96955"/>
<path d="M2.6259 40.6934L14.8019 42.5451L12.2843 58.5784L4.59421 57.4041L0.794922 52.0748L2.6259 40.6934Z" fill="#623D91"/>
<path d="M0.701172 52.0752L5.3244 52.7978L4.59201 57.4046" fill="#D4EDFC"/>
<path d="M5.95321 55.0313L5.88281 55.4775L10.8581 56.2416L10.9285 55.7954L5.95321 55.0313Z" fill="#D4EDFC"/>
<path d="M6.18705 53.3623L6.1167 53.8086L11.092 54.5722L11.1623 54.1259L6.18705 53.3623Z" fill="#D4EDFC"/>
<path d="M2.45566 50.8662L2.38525 51.3125L11.386 52.6948L11.4564 52.2485L2.45566 50.8662Z" fill="#D4EDFC"/>
<path d="M2.74125 48.9971L2.6709 49.4434L11.6716 50.8248L11.742 50.3785L2.74125 48.9971Z" fill="#D4EDFC"/>
<path d="M3.03671 47.086L2.96631 47.5322L11.967 48.9145L12.0374 48.4683L3.03671 47.086Z" fill="#D4EDFC"/>
<path d="M3.32333 45.2188L3.25293 45.665L12.2537 47.0473L12.3241 46.6011L3.32333 45.2188Z" fill="#D4EDFC"/>
<path d="M3.66215 43.3115L3.5918 43.7578L12.5925 45.1392L12.6629 44.6929L3.66215 43.3115Z" fill="#D4EDFC"/>
<path d="M3.81348 38.841L16.4015 36.0859L20.155 52.6161L12.1902 54.3775L6.4684 50.6288L3.81348 38.841Z" fill="#F39325"/>
<path d="M6.42334 50.6735L11.1381 49.6348L12.1909 54.377" fill="#D4EDFC"/>
<path d="M17.7539 50.4259L12.6162 51.5566L12.7159 51.9974L17.8536 50.8667L17.7539 50.4259Z" fill="#D4EDFC"/>
<path d="M17.3926 48.7501L12.2549 49.8809L12.3545 50.3217L17.4923 49.191L17.3926 48.7501Z" fill="#D4EDFC"/>
<path d="M16.9298 46.8045L7.63721 48.8496L7.73686 49.2904L17.0295 47.2453L16.9298 46.8045Z" fill="#D4EDFC"/>
<path d="M16.4635 44.823L7.1709 46.8682L7.27055 47.309L16.5632 45.2639L16.4635 44.823Z" fill="#D4EDFC"/>
<path d="M16.0074 42.8836L6.71484 44.9287L6.81449 45.3695L16.1071 43.3244L16.0074 42.8836Z" fill="#D4EDFC"/>
<path d="M15.5958 40.9363L6.30322 42.9814L6.40287 43.4222L15.6955 41.3771L15.5958 40.9363Z" fill="#D4EDFC"/>
<path d="M15.1398 38.9969L5.84717 41.042L5.94682 41.4828L15.2394 39.4377L15.1398 38.9969Z" fill="#D4EDFC"/>
<path d="M33.7505 18.2916L44.7364 9.21362C44.9653 9.03296 45.2857 9.03296 45.4688 9.21362C45.9265 9.6201 46.7047 10.3427 47.0709 11.0202C47.2082 11.246 47.1624 11.5622 46.9336 11.7428L35.5815 22.4467L33.7505 18.2916Z" fill="#623D91"/>
<path d="M35.582 18.1112C35.582 18.1112 37.5045 20.0081 37.1383 23.3502C37.0468 24.3438 36.6348 25.2471 36.0398 26.0149L26.4271 38.2544C26.1982 38.5254 25.8778 38.7061 25.5116 38.7512C24.0926 38.9319 20.3391 39.248 17.6841 38.3899C17.4553 38.2996 17.3637 38.0738 17.501 37.8931L26.244 22.7179L31.5538 16.6208C31.5538 16.6208 34.0714 15.7626 35.582 18.1112Z" fill="#623D91"/>
<path d="M23.5419 34.0989C23.4961 34.0989 23.4504 34.0989 23.4504 34.0537C23.3588 34.0086 23.3588 33.8731 23.4046 33.8279C23.4961 33.7376 31.7813 22.7175 32.3306 21.3626C32.8341 20.1431 31.644 19.1947 31.5982 19.1495C31.5067 19.1044 31.5067 18.9689 31.5524 18.8785C31.5982 18.7882 31.7355 18.7882 31.8271 18.8334C31.8271 18.8334 33.2919 20.0076 32.6968 21.4981C32.1017 22.8982 24.0454 33.6021 23.725 34.0537C23.6792 34.0989 23.6335 34.0989 23.5419 34.0989Z" fill="#9D7EB8"/>
<path d="M23.2679 34.235L19.2397 39.2031C19.2397 39.2031 18.6446 42.4097 18.1411 42.8614C17.6376 43.313 16.1728 43.584 15.7608 42.8614C15.4404 42.2291 15.3031 41.5516 15.2573 41.4161L16.5848 41.9581C16.5848 41.9581 16.539 41.7774 16.539 41.5064C16.539 41.4613 16.539 41.4613 16.539 41.4161C16.4932 41.1903 16.4475 40.9193 16.4475 40.558C16.4017 39.9709 16.4932 39.2482 16.951 38.9321C17.8207 38.2546 18.0496 38.1643 18.0496 38.1643L20.3841 33.1511C20.2925 33.0607 21.9404 34.0995 23.2679 34.235Z" fill="#A96955"/>
<path d="M5.32453 32.5624C5.09566 32.6076 4.95834 32.8334 5.09566 33.0592C5.55341 34.0077 6.92664 36.0401 9.76467 35.4078C13.3809 34.5948 24.4583 26.3298 26.9301 24.0716C29.4477 21.8134 32.7435 19.0132 34.3914 19.4196C35.9935 19.8261 35.0322 18.8777 33.9336 18.1551C33.0639 17.5679 32.6062 16.8001 32.8351 16.5743C32.8351 16.5743 32.8808 16.5291 32.8351 16.484C32.8351 16.4388 32.7893 16.4388 32.7893 16.4388C32.0569 16.3485 30.3632 16.3485 28.1203 17.5679C25.0992 19.1938 10.4055 24.7942 5.50763 23.1683C5.32453 23.1231 5.14144 23.2134 5.09566 23.3941C4.91256 24.478 4.59214 27.9557 7.47594 31.8398C7.43016 31.8398 6.33158 32.3818 5.32453 32.5624Z" fill="#F39325"/>
<path d="M36.0393 12.3743L33.1555 16.3939C32.9724 16.6649 32.9724 17.0262 33.2013 17.252C33.5675 17.6585 34.2541 18.2457 34.9407 18.3811C35.1696 18.4263 35.3985 18.336 35.49 18.1553L37.0006 15.8519C37.0464 15.8068 37.3668 12.1485 36.0393 12.3743Z" fill="#A96955"/>
<path d="M36.8637 9.0326C36.9095 9.07776 39.3356 13.7297 39.3356 13.7297L36.6349 15.0394L33.7053 10.9747C33.6595 10.9747 35.8567 8.12932 36.8637 9.0326Z" fill="#A96955"/>
<path d="M34.8492 11.0647C34.8034 11.2002 34.8034 11.3357 34.895 11.426L36.2682 13.6391C36.2682 13.6842 36.314 13.6842 36.3598 13.7294C36.5429 13.8649 37.0922 14.3165 37.5041 13.7294C37.8703 13.2326 38.1908 12.7809 38.5569 12.6003C38.7858 12.51 39.0147 12.6003 39.152 12.7809C39.3809 13.2326 39.7929 14.0907 40.0675 14.9488C40.1133 15.1746 40.0217 15.4005 39.8386 15.4908C39.2893 15.7166 38.1908 16.1231 37.2295 16.2586C37.0922 16.2586 36.9091 16.2134 36.8175 16.0779C36.4055 15.536 35.2154 13.9552 34.8492 13.5487C34.483 13.1874 33.7964 13.3229 33.476 13.4132C33.3387 13.4584 33.2471 13.4132 33.1098 13.3681C32.7894 13.1874 32.2401 12.7358 32.7436 11.9228C32.8809 11.7422 32.7894 11.4712 32.6063 11.3357C32.2401 11.1099 31.8739 10.7034 32.2401 9.98076C32.6063 9.3033 33.2471 9.21297 33.7048 9.25813C33.8879 9.3033 34.1168 9.1678 34.1626 8.98715C34.2084 8.89682 34.2541 8.85165 34.3915 8.80649C34.6203 8.76133 34.7577 8.5355 34.7119 8.30968C34.6203 7.90321 34.7119 7.4064 35.3527 7.04509C36.5429 6.41279 37.5499 7.45156 37.8246 8.30968C38.0992 9.1678 36.7717 9.8001 35.9478 9.89043C35.307 10.0711 34.9865 10.7486 34.8492 11.0647Z" fill="black"/>
<path d="M35.3069 14.3623C35.3069 14.3623 34.8034 12.8719 34.1168 12.917C33.4302 12.9622 32.9267 13.6396 33.7506 14.3623C34.7576 15.2656 35.3069 14.3623 35.3069 14.3623Z" fill="#A96955"/>
<path d="M56.1336 1.49023H54.623V2.30319H56.1336V1.49023Z" fill="#F39325"/>
<path d="M40.0673 53.8806L40.113 53.7902C40.113 53.5644 39.9299 53.4289 39.518 53.4289C39.0144 53.1128 38.5109 52.616 37.9158 51.8933C37.3208 51.1707 37.0004 50.5836 36.863 50.2223C36.7715 50.0416 36.7715 49.9061 36.7715 49.8609C36.7715 49.7255 36.8173 49.6351 36.9088 49.59C37.0004 49.5448 37.1377 49.4545 37.275 49.4093C37.4123 49.3641 37.5039 49.319 37.5954 49.2738C38.0074 49.0028 38.3278 48.8673 38.5567 48.8673C38.7856 48.8673 39.0144 49.0028 39.1518 49.319C39.4722 49.9061 40.0215 50.4029 40.7539 50.7642C41.4863 51.1255 42.3102 51.3514 43.1799 51.3514C44.0039 51.3514 44.6905 51.2159 45.3313 50.9449C45.9264 50.6739 46.2468 50.2674 46.2468 49.7254C46.2468 49.319 46.0637 48.8673 45.6975 48.2802C45.6517 48.1447 45.5602 48.0092 45.4686 47.9189C45.3313 47.7834 45.194 47.6931 45.0567 47.5576C44.6905 47.2866 44.2785 46.9253 43.8208 46.4736C43.4546 46.3381 43.0426 46.1575 42.6764 45.9317L41.944 45.5703C41.3489 45.2994 40.7081 44.8477 39.9757 44.2154C39.2433 43.5831 38.7398 43.0411 38.4651 42.4992C37.9616 42.0024 37.687 41.2797 37.687 40.2861C37.687 39.2022 37.9616 38.1634 38.4651 37.215C38.7398 36.5827 39.4264 35.6342 40.525 34.3244C41.6236 33.0147 42.4018 32.2017 42.951 31.8856L43.8665 31.0275C43.9123 30.9371 43.9123 30.892 43.9581 30.892C44.0039 30.892 44.0496 30.892 44.0496 30.892C44.1412 30.8468 44.3701 30.7565 44.782 30.5758C45.194 30.3952 45.6517 30.079 46.1095 29.6725C47.5285 28.9951 48.8102 28.4983 49.9546 28.1821C51.0531 27.9111 52.0144 27.7305 52.7468 27.7305C53.6623 27.7756 54.532 28.0918 55.3102 28.7241C56.0883 29.3112 56.5461 30.0338 56.6834 30.8016C56.7292 31.0275 56.775 31.2081 56.775 31.3436C56.775 32.2017 56.4088 33.1502 55.7221 34.2341C55.0355 35.3181 54.2574 36.0407 53.4792 36.4923C53.113 36.673 52.7926 36.7182 52.4722 36.7182C52.0602 36.7182 51.7398 36.6278 51.5109 36.402C51.282 36.1762 51.1447 35.9052 51.1905 35.589C51.1905 35.3632 51.282 35.1374 51.4193 34.8664C51.5567 34.5954 51.9229 34.1438 52.4722 33.5567C53.2961 32.3824 53.6623 31.5694 53.6623 31.0275C53.6623 30.6661 53.4334 30.4855 53.0214 30.3952C52.7468 30.3048 52.0602 30.4403 50.9158 30.7113C49.7715 30.9823 49.2222 31.163 49.2222 31.2984C49.2222 31.3436 49.2222 31.3436 49.2222 31.4339C49.2222 31.4791 49.1764 31.5243 49.0848 31.4791C48.9933 31.4339 48.3067 31.8404 47.0708 32.6082C45.8348 33.4212 45.194 33.8728 45.1482 33.9631C45.1024 34.0986 45.0567 34.189 44.8736 34.3244C44.7363 34.4599 44.5532 34.5503 44.3243 34.6406C43.9123 34.9116 43.5003 35.2277 43.1799 35.6794C42.8595 36.131 42.4018 36.8085 41.8525 37.7569C41.5778 38.1634 41.3489 38.5699 41.1658 39.0667C40.9827 39.5183 40.8912 39.97 40.8912 40.3313C40.8912 40.6023 40.937 40.8281 40.9827 41.0088C41.0743 41.3701 41.3489 41.6862 41.7609 41.9572C42.1729 42.2282 42.951 42.725 44.1412 43.4476C45.3313 44.1251 46.4299 44.8477 47.3912 45.6155C48.3524 46.3833 48.9475 46.9704 49.1764 47.4221C49.5426 47.964 49.7257 48.6415 49.7257 49.4996C49.7257 50.1771 49.6341 50.8094 49.451 51.3965C49.2222 51.8482 48.9475 52.2546 48.6271 52.616C48.3067 52.9773 47.9862 53.1579 47.7574 53.1579C47.5285 53.2483 47.2996 53.2934 47.1623 53.4289C46.9792 53.5192 46.8419 53.6096 46.7503 53.6547C46.4757 53.8354 45.7433 53.9709 44.5532 54.1515C43.4088 54.3322 42.4018 54.4225 41.6236 54.3774L40.0673 53.8806Z" fill="#623D91"/>
<path d="M55.0354 51.1711C54.5776 50.6292 54.2572 50.2227 54.1656 49.8162C54.1656 49.771 54.1199 49.7259 54.0741 49.6807C54.0283 49.6356 53.9825 49.5904 53.9825 49.5452C53.891 49.4549 53.8452 49.0936 53.8452 48.4161C53.8452 47.8741 53.891 47.287 53.9368 46.6547C53.9825 46.0676 54.0741 45.5708 54.1656 45.2095L54.8065 43.3577L55.31 41.9576L56.2713 39.9252L54.8523 39.5639C54.6692 39.5188 54.5318 39.4736 54.4403 39.3381C54.3487 39.2026 54.303 39.0671 54.303 38.9768C54.303 38.7961 54.3945 38.5252 54.6234 38.1638C54.8065 37.8025 54.9896 37.6219 55.0811 37.6219C55.1727 37.667 55.3558 37.667 55.6304 37.667C56.317 37.667 56.8663 37.6219 57.2325 37.5767C57.4614 37.4864 57.6445 37.3057 57.7361 37.0347C57.8734 36.7638 57.9649 36.5831 58.1022 36.4024C58.2396 36.2218 58.3311 36.0411 58.4684 35.8153C58.56 35.6798 58.6515 35.454 58.7889 35.183C58.9262 34.912 59.1551 34.5507 59.3839 34.1894C59.4297 34.0991 59.5213 33.9636 59.7044 33.6926C59.8875 33.4216 60.0706 33.1958 60.2994 33.0151C60.4367 32.8796 60.6198 32.7893 60.8487 32.699C61.0776 32.6086 61.3065 32.5635 61.5353 32.5635C61.9473 32.5635 62.3135 32.699 62.5424 32.9248C62.7713 33.2409 62.8628 33.5119 62.8628 33.6474C62.8628 33.8281 62.7712 34.0991 62.5882 34.37C62.4508 34.641 62.222 35.0023 61.9015 35.4992C61.6269 35.9056 61.398 36.2669 61.2607 36.4928C61.0318 36.8089 60.8945 37.0347 60.8945 37.1702C60.8945 37.3509 61.0318 37.3961 61.3522 37.3961C61.6727 37.3961 62.222 37.3057 63.0001 37.1702C63.1374 37.1251 63.2748 37.1251 63.5036 37.1251C64.0529 37.1251 64.4649 37.3057 64.6938 37.6219C64.9227 37.938 65.06 38.3445 65.06 38.8413C65.06 39.1575 64.9684 39.3833 64.7396 39.4284C64.5107 39.5188 64.0072 39.5188 63.229 39.5188C62.4966 39.6543 61.7184 39.6994 60.8945 39.6994C60.7572 39.6994 60.5741 39.6994 60.4367 39.6994C60.2536 39.6994 60.0706 39.7446 59.8875 39.7898C59.7044 39.8349 59.567 39.9252 59.4755 40.0156C59.3839 40.1059 59.2924 40.2414 59.2008 40.4672C59.1093 40.5575 58.972 40.7834 58.6973 41.2802C58.3769 41.9576 58.148 42.3641 58.0565 42.4996C57.4614 44.261 56.9579 46.1127 56.6375 47.9645C56.5917 48.1 56.5917 48.2806 56.5917 48.5065C56.5917 48.8226 56.6832 49.0033 56.9121 49.1388C57.0952 49.2742 57.5072 49.3194 58.1022 49.3194C58.7431 49.3194 59.3839 49.2291 59.979 49.0936C60.6656 48.7774 61.2149 48.5516 61.5811 48.3258C61.81 48.1903 61.9931 48.1 62.1762 48.0096C62.3593 47.9193 62.4966 47.829 62.5424 47.7838C62.6339 47.6032 62.817 47.6032 63.0001 47.8742C63.229 48.1 63.4121 48.371 63.5036 48.6871C63.5036 49.0936 63.4121 49.5001 63.2748 49.8162C63.0917 50.1324 62.6797 50.4937 62.0389 50.9002C61.3065 51.3518 60.5283 51.7131 59.7044 51.8938C58.8804 52.1196 58.148 52.2099 57.4614 52.2099C57.0494 52.2099 56.6832 52.1648 56.3628 52.1196C55.9508 52.0293 55.5389 51.7131 55.0354 51.1711Z" fill="#623D91"/>
<path d="M65.7918 50.7634C65.4714 50.5376 65.2883 50.4021 65.2883 50.3569C65.2883 50.2666 65.2425 50.1311 65.151 49.9505C65.0594 49.7698 64.9221 49.6343 64.8306 49.4988C64.6475 49.3182 64.7848 48.6859 65.1967 47.6923C65.6545 46.6535 66.2496 45.4792 66.982 44.0791C67.1193 43.9436 67.3024 43.7178 67.5312 43.3565C67.7601 42.9952 67.8974 42.8145 67.989 42.7694C67.989 42.679 68.0348 42.5887 68.0805 42.4984C68.1721 42.408 68.2179 42.3629 68.3094 42.3629L68.5841 41.8209C68.6756 41.5951 69.1334 41.0983 69.9573 40.3305C70.7812 39.5175 71.4221 39.0207 71.8798 38.7046C72.3376 38.3884 72.7953 38.2529 73.3446 38.2529C73.8939 38.2529 74.3974 38.4336 74.8094 38.7497L75.7707 39.5627C76.4573 40.1498 76.8693 40.466 76.9608 40.5563L78.2883 41.6854L77.6932 43.4468C77.4643 44.0791 77.3728 44.6663 77.3728 45.2082C77.3728 46.1115 77.6017 46.9245 78.1052 47.6923C78.2425 47.9632 78.3798 48.1439 78.5629 48.2794C78.746 48.4149 79.0207 48.5052 79.3411 48.5504C79.8446 48.6407 80.1193 48.9117 80.1193 49.3182C80.1193 49.815 80.0277 50.2215 79.8446 50.4473C79.6615 50.7183 79.4326 50.8538 79.158 50.9441C78.7918 50.9892 78.5171 51.0344 78.3798 51.0344C77.6932 51.0344 77.0524 50.8538 76.5031 50.4924C75.9538 50.1311 75.4503 49.544 75.0383 48.731C74.9467 48.5955 74.8094 48.3246 74.6721 47.9632C74.5348 47.6019 74.4432 47.3309 74.3974 47.1954C74.2143 47.4213 73.9397 47.7374 73.5735 48.0987C71.1474 50.5376 69.1791 51.7119 67.6686 51.7119C67.1651 51.7119 66.7073 51.5764 66.2953 51.3506C66.2953 51.1699 66.1122 50.9892 65.7918 50.7634ZM70.5066 47.1503C70.6439 47.06 70.7355 46.9245 70.8728 46.8341C71.0101 46.6986 71.1474 46.5632 71.3305 46.4277C71.9714 45.8857 72.5207 45.434 72.8869 45.0727C73.2531 44.7114 73.6193 44.2598 73.9855 43.763L74.7636 42.4984C74.5348 42.0016 74.3059 41.6402 74.1228 41.4596C73.9397 41.2789 73.7566 41.1886 73.5735 41.1886C73.1157 41.1886 72.5207 41.5951 71.7883 42.408C71.1017 43.221 70.2319 44.4856 69.2249 46.1567C68.9503 46.5631 68.7672 47.0148 68.5841 47.4664C68.401 47.9181 68.3094 48.2342 68.2636 48.3697C68.6756 48.46 69.408 48.0536 70.5066 47.1503Z" fill="#623D91"/>
<path d="M91.1515 48.7316C91.1515 48.2799 91.1972 47.8734 91.243 47.4218C91.2888 46.925 91.3345 46.5637 91.3345 46.3379V46.1572V45.7959C91.243 45.3442 91.1057 45.1184 90.8768 45.1184C90.4648 45.1184 89.6867 45.5249 88.5423 46.3379C87.3979 47.1508 86.2078 48.0993 84.9719 49.2284C84.6057 49.6348 84.2853 49.9962 84.0106 50.3575C83.7817 50.6736 83.5986 50.8543 83.4613 50.8994C83.324 50.9898 83.1409 50.9898 82.912 50.9898C82.5916 50.9446 82.2254 50.7188 81.7677 50.2671C81.3557 49.8155 81.081 49.409 80.8979 49.0929C80.8979 48.4606 81.0353 47.8283 81.2641 47.2411C81.493 46.654 81.8592 45.8862 82.317 44.9829C82.5458 44.3055 82.8205 43.5828 83.1409 42.9054C83.5071 42.0924 83.736 41.4601 83.9191 41.0536C84.0564 40.602 84.1937 40.1955 84.2395 39.6987C84.2395 39.6535 84.2395 39.6535 84.1937 39.6535C84.1937 39.5632 84.2395 39.4729 84.2853 39.4277C84.3768 39.3374 84.4226 39.3374 84.5141 39.3374C84.5599 39.2471 84.6972 39.2471 84.9261 39.2471C85.5212 39.2471 86.0705 39.4277 86.5282 39.7439C86.986 40.06 87.2148 40.5568 87.2148 41.2343C87.2148 41.5956 87.1691 41.9118 87.0317 42.2279C86.8944 42.5441 86.6655 43.0409 86.2993 43.7635L85.9331 44.5313C85.8416 44.6668 85.7501 44.8926 85.6127 45.1636C85.4754 45.4346 85.3839 45.6152 85.3839 45.6604C85.9789 45.2539 86.6655 44.7571 87.4895 44.0796C88.6796 43.1312 89.6409 42.4086 90.3733 41.9118C91.1057 41.415 91.7007 41.144 92.0212 41.144C92.3416 41.144 92.7536 41.3246 93.3029 41.6408C93.8521 41.9569 94.1726 42.2731 94.2641 42.5441C94.2641 42.7247 94.2641 42.9505 94.2183 43.2667C94.1726 43.5828 94.1726 43.899 94.1268 44.1248L94.1726 45.2087C94.2183 45.3894 94.2183 45.6604 94.2183 46.0669C94.2183 46.7895 94.1726 47.3315 94.081 47.6476C94.1268 47.6928 94.1268 47.6928 94.1726 47.7379C94.2183 47.7831 94.2183 47.8283 94.2183 47.8283L94.1726 47.9186C94.2183 48.1444 94.3099 48.5057 94.5388 49.0477C94.7676 49.5445 94.905 49.8607 94.905 49.9058C94.905 50.1768 94.7219 50.4478 94.4014 50.764C94.081 51.0801 93.7148 51.2608 93.4402 51.3059C91.8838 51.1704 91.1515 50.3575 91.1515 48.7316Z" fill="#623D91"/>
<path d="M106.348 52.48C106.073 52.2542 105.845 52.0284 105.707 51.7574C105.57 51.4413 105.524 51.1251 105.478 50.809C105.433 50.4928 105.387 50.0863 105.387 49.5444L105.341 48.3701L103.876 49.6799C102.411 51.0348 100.992 51.7574 99.7565 51.7574C99.3903 51.6671 98.8868 51.3961 98.3375 50.809C97.7424 50.267 97.3762 49.7702 97.2389 49.3637C97.1473 49.1831 97.1016 48.8669 97.1016 48.5056C97.1016 47.6023 97.3304 46.5635 97.7882 45.2989C98.2459 44.0343 98.841 43.0407 99.5734 42.2729C100.077 41.5051 100.718 40.918 101.45 40.5115C102.183 40.105 102.915 39.9244 103.693 39.9244C104.38 39.9244 105.021 40.0599 105.57 40.376C105.89 40.5567 106.165 40.6019 106.394 40.6019C106.623 40.6019 106.76 40.4664 106.852 40.1502C106.897 40.0147 107.035 39.5631 107.264 38.7501L107.63 37.621C108.133 36.0854 108.591 34.866 108.957 33.9175C109.323 32.9691 109.781 31.9755 110.33 30.8464C110.559 30.3496 110.834 29.9883 111.063 29.7624C111.337 29.5366 111.566 29.4463 111.749 29.4463C112.07 29.4463 112.39 29.5366 112.757 29.7624C113.123 29.9431 113.352 30.2141 113.489 30.5302C113.58 30.7109 113.58 30.8915 113.58 31.1174C113.58 31.3884 113.489 31.6593 113.352 31.9303C112.757 32.9691 111.978 34.6853 111.109 37.079C110.193 39.4727 109.507 41.5051 109.003 43.2665C108.82 43.8988 108.683 44.757 108.591 45.8861C108.499 47.0152 108.454 48.0991 108.454 49.1831C108.454 50.2218 108.499 50.8541 108.545 51.08C108.591 51.2154 108.637 51.3961 108.637 51.6219C108.637 52.0284 108.499 52.2994 108.225 52.4349C107.95 52.5704 107.584 52.7059 107.172 52.751C106.897 52.7962 106.623 52.7059 106.348 52.48ZM103.19 47.4217C103.876 46.9248 104.426 46.4732 104.746 46.0667C105.066 45.6602 105.295 45.1634 105.524 44.5763C105.57 44.4408 105.616 44.3053 105.616 44.0795C105.616 43.673 105.433 43.2665 105.021 42.9504C104.792 42.7697 104.517 42.6794 104.197 42.6794C103.693 42.6794 103.19 42.9504 102.64 43.4472C102.045 43.9892 101.542 44.6215 101.176 45.2989C100.809 45.9764 100.489 46.9248 100.214 48.0991C100.168 48.2798 100.168 48.4153 100.306 48.5056C100.397 48.5959 100.535 48.6411 100.764 48.6411C100.947 48.6411 101.176 48.5959 101.45 48.4604C101.908 48.2798 102.503 47.9185 103.19 47.4217Z" fill="#623D91"/>
<path d="M119.212 51.1702C119.075 50.854 118.937 50.3121 118.754 49.6346C118.708 49.4991 118.663 49.2733 118.663 49.0023C118.663 48.7313 118.663 48.5506 118.663 48.4152C118.571 48.641 118.434 48.8668 118.296 49.0926C118.159 49.3184 118.022 49.4991 117.885 49.5894C117.335 50.1314 116.786 50.5379 116.237 50.7637C115.504 51.2153 114.818 51.4412 114.314 51.4412C113.673 51.4412 113.078 51.125 112.62 50.5379C111.888 49.9507 111.476 49.2281 111.476 48.37C111.476 48.2345 111.522 48.0538 111.568 47.6925C111.613 46.8344 111.751 46.0214 111.934 45.2085C112.117 44.3955 112.529 43.4019 113.078 42.1825L114.131 40.1049L114.68 39.021C114.818 38.9758 115.001 38.9307 115.23 38.9307C115.596 38.9307 115.962 39.021 116.282 39.1565C116.603 39.292 116.786 39.4726 116.832 39.6985C116.923 39.7888 116.923 39.9694 116.923 40.2404C116.923 40.9631 116.603 41.9567 115.962 43.2213L115.687 43.8987C115.275 44.8923 114.955 45.6601 114.772 46.2473C114.589 46.7892 114.497 47.286 114.497 47.6474C114.497 48.0087 114.635 48.2797 114.909 48.37C115.046 48.4603 115.184 48.4603 115.321 48.4603C115.779 48.4603 116.374 48.099 117.015 47.3764C117.701 46.6537 118.388 45.4343 119.075 43.7632C119.395 42.9503 119.624 42.1373 119.67 41.3244C119.624 41.0534 119.715 40.7824 119.899 40.4662C120.082 40.1501 120.356 39.9243 120.631 39.7436C120.723 39.6081 120.86 39.4726 120.997 39.4275C121.18 39.3371 121.272 39.3371 121.318 39.4275L121.867 39.3823C121.958 39.3371 122.05 39.4726 122.187 39.6985C122.325 39.9243 122.462 40.0598 122.508 40.1049C122.737 40.2856 122.874 40.6469 122.874 41.234C122.874 42.0018 122.599 43.0406 122.004 44.3955C121.546 45.344 121.272 46.0214 121.089 46.5634C120.951 47.0602 120.86 47.557 120.814 48.0087C120.814 48.5055 120.86 48.8668 120.951 49.1378C121.043 49.4088 121.226 49.6798 121.592 49.9507C121.958 50.2217 122.142 50.8089 122.05 51.7573C122.004 51.938 121.867 52.0283 121.684 52.1186C121.455 52.209 121.226 52.2541 120.906 52.2541C120.402 52.2541 119.944 52.1186 119.578 51.8928C119.532 51.7573 119.349 51.4863 119.212 51.1702Z" fill="#623D91"/>
<path d="M122.782 60.2029C122.553 60.2029 122.37 60.1126 122.233 59.8868C122.187 59.8416 122.095 59.7061 121.912 59.4803C121.729 59.2093 121.638 58.848 121.638 58.3512C121.638 58.2609 121.683 58.0802 121.729 57.8092C122.004 56.8156 122.095 56.1382 122.095 55.7768C122.095 55.6413 122.141 55.5059 122.187 55.28C122.233 55.0542 122.279 54.8736 122.279 54.6477C122.37 54.4671 122.462 54.2413 122.553 53.8799C122.645 53.5638 122.691 53.2476 122.691 52.9767C122.691 52.8412 122.736 52.7057 122.828 52.5702C122.919 52.4347 123.011 52.2992 123.148 52.2089C123.148 52.0734 123.194 51.8476 123.24 51.5766C123.331 51.3056 123.377 51.0798 123.377 50.9443C123.514 50.312 123.972 48.8215 124.75 46.473C125.574 44.1245 126.215 42.2276 126.81 40.7823C127.085 40.15 127.314 39.5177 127.497 38.9757C127.68 38.4338 127.771 38.0273 127.771 37.8015C127.771 37.7111 127.817 37.6208 127.863 37.5305C127.909 37.4402 128 37.3498 128.183 37.2143C128.367 37.0337 128.641 36.9434 128.916 36.9434C129.328 36.9434 129.694 37.0788 130.06 37.3047C130.243 37.5757 130.335 37.8015 130.426 37.9821C130.518 38.1628 130.518 38.3886 130.518 38.6144C130.518 38.7048 130.472 38.8854 130.426 39.2919C130.426 39.7887 130.289 40.2403 130.014 40.6017C129.74 41.0081 129.602 41.1888 129.648 41.1436C130.793 40.4662 131.891 40.1049 132.852 40.1049C133.905 40.1049 134.775 40.4662 135.416 41.1888C136.057 41.9114 136.377 42.7695 136.377 43.8083C136.377 44.2148 136.194 44.8019 135.828 45.5697C135.462 46.3375 135.141 46.8343 134.912 47.0601C134.775 47.0601 134.592 47.286 134.363 47.7828C134.088 48.1441 133.539 48.5506 132.761 48.957C131.983 49.3635 131.433 49.499 131.159 49.4087C131.113 49.4087 131.113 49.4538 131.067 49.499C131.021 49.5442 130.976 49.6345 130.976 49.7248C130.976 49.8152 130.609 49.9958 129.923 50.2216C129.236 50.4475 128.595 50.583 128.092 50.583C127.817 50.583 127.588 50.583 127.451 50.5378C127.314 50.4926 127.176 50.4475 127.039 50.312C126.856 50.4926 126.81 50.6281 126.81 50.7636C126.81 50.9894 126.673 51.3507 126.444 51.8476C126.215 52.3444 126.032 52.6153 125.895 52.6153C125.849 52.6605 125.849 52.7057 125.803 52.7508C125.757 52.796 125.803 52.8863 125.895 52.9767C125.895 53.067 125.895 53.2025 125.849 53.4735C125.803 53.7444 125.757 53.9251 125.666 54.0606C125.666 54.2864 125.62 54.5574 125.574 54.9187C125.483 55.28 125.437 55.551 125.345 55.7317C125.345 56.0027 125.3 56.2736 125.208 56.5446C125.117 56.8156 125.025 56.9511 124.933 56.9511C124.796 56.9963 124.705 57.3124 124.705 57.9447C124.659 58.4867 124.476 58.9835 124.155 59.4351C123.835 59.8868 123.469 60.1126 123.194 60.1126L122.782 60.2029ZM129.465 47.4215C130.381 47.0601 131.021 46.6988 131.479 46.3375C132.029 45.8859 132.44 45.4794 132.715 45.1181C132.99 44.7568 133.127 44.3955 133.127 43.989C133.127 43.6728 133.036 43.3567 132.807 43.0405C132.624 42.7695 132.395 42.6792 132.074 42.6792C131.296 42.6792 130.289 43.2664 129.053 44.4406C128.641 44.8923 128.229 45.4342 127.909 46.1117C127.588 46.7892 127.405 47.286 127.405 47.6473C127.405 47.8731 127.497 47.9634 127.634 47.9634C127.955 47.9634 128.55 47.7828 129.465 47.4215Z" fill="#623D91"/>
<path d="M136.147 53.3838C135.781 52.9321 135.598 52.345 135.598 51.7127C135.598 51.1707 135.735 50.6739 135.964 50.132C136.422 49.1383 136.926 48.3705 137.383 47.7382C137.566 47.5124 137.658 47.2866 137.75 47.1511C137.841 46.9705 137.887 46.7898 137.887 46.4736C138.207 46.0672 138.665 45.2994 139.214 44.2154C140.13 42.7702 141.457 40.512 143.151 37.4408C143.38 37.0343 143.838 36.1762 144.57 34.9568C145.257 33.7373 145.714 32.9695 145.989 32.7437L146.172 32.5179C146.081 32.6534 146.218 32.3824 146.538 31.7049C146.859 31.0726 147.179 30.4855 147.545 29.9435C147.911 29.4016 148.232 29.1758 148.507 29.1758C148.827 29.1758 149.147 29.3112 149.559 29.5371C149.971 29.7629 150.292 30.1242 150.612 30.621C150.887 31.1178 151.07 31.6598 151.07 32.2921C151.07 32.5631 151.07 32.7889 151.024 32.9695L150.658 35.3633L150.475 36.131C150.154 37.6666 149.697 39.7893 149.102 42.454C148.552 44.8477 148.278 46.2478 148.278 46.7446C148.278 46.8801 148.323 47.0156 148.369 47.0608C148.415 47.1511 148.461 47.1963 148.552 47.1963C148.598 47.1963 148.735 47.1059 148.919 46.9705C149.102 46.835 149.285 46.6091 149.422 46.293L149.88 45.6155L150.475 44.7574C151.116 43.8541 151.94 42.6347 152.901 41.0991C153.862 39.5635 155.419 36.8988 157.616 33.1502C158.073 32.5179 158.44 31.9308 158.714 31.434C159.08 30.8468 159.447 30.2597 159.813 29.7177C160.179 29.1758 160.454 28.8596 160.637 28.7241C160.866 28.5435 161.186 28.4531 161.507 28.4531C161.873 28.4983 162.239 28.5886 162.605 28.8144C162.971 29.0403 163.338 29.3564 163.612 29.8081C163.887 30.2145 164.024 30.6662 164.024 31.163C164.024 31.7049 163.841 32.7437 163.521 34.2341C163.2 35.7246 162.788 37.1698 162.33 38.5699C162.239 39.0667 161.964 40.1958 161.461 42.0024C161.095 43.3573 160.82 44.4413 160.637 45.209C160.454 46.022 160.362 46.6543 160.362 47.1059V47.3769C159.996 48.0092 159.813 49.2738 159.813 51.1256C159.721 51.8934 159.538 52.4805 159.264 52.9321C158.989 53.3838 158.806 53.5644 158.623 53.5644L158.531 53.5193C158.394 53.5193 158.302 53.5644 158.211 53.6548C158.119 53.7451 157.936 53.7903 157.753 53.7903C157.158 53.7903 156.792 53.5644 156.609 53.158C156.426 52.7515 156.334 52.1643 156.334 51.4417C156.334 51.0352 156.334 50.6739 156.38 50.4029C156.471 49.8158 157.204 46.6543 158.623 40.9636C159.767 36.4924 160.316 34.1438 160.316 33.9632L159.813 34.8213C159.355 35.7246 158.76 36.7182 158.028 37.9376L155.556 42.4992C155.235 42.9057 155.007 43.3122 154.778 43.7186C154.595 44.1251 154.457 44.3509 154.457 44.3961C154.183 44.9381 153.588 45.751 152.764 46.7898C152.489 47.1511 152.306 47.3769 152.26 47.4673C152.123 47.7382 151.757 48.1899 151.116 48.8222C150.475 49.4545 149.788 50.0416 149.102 50.5836C148.415 51.1256 147.82 51.3514 147.316 51.3514C146.676 51.3514 146.126 51.0352 145.623 50.4481C145.119 49.861 144.845 49.0932 144.845 48.2351C144.845 47.6028 144.982 46.564 145.211 45.0736C145.577 43.4476 145.989 41.8217 146.401 40.1958C146.813 38.5699 147.133 37.4408 147.271 36.944C147.362 36.7182 147.362 36.4924 147.362 36.2665C147.362 36.0859 147.316 35.9955 147.271 35.9504C147.225 35.9504 147.225 35.9956 147.179 36.0407C147.133 36.0859 147.088 36.131 147.042 36.2214C146.676 36.7633 146.126 37.757 145.394 39.157C144.662 40.5571 143.838 42.183 142.968 44.0799C139.581 50.1771 137.658 53.5193 137.154 54.1064C136.926 54.0612 136.559 53.8354 136.147 53.3838Z" fill="#F39325"/>
<path d="M163.842 50.7634C163.521 50.5376 163.338 50.4021 163.338 50.3569C163.338 50.2666 163.292 50.1311 163.201 49.9505C163.109 49.7698 162.972 49.6343 162.88 49.4988C162.697 49.3182 162.835 48.6859 163.247 47.6923C163.704 46.6535 164.299 45.4792 165.032 44.0791C165.169 43.9436 165.352 43.7178 165.581 43.3565C165.81 42.9952 165.947 42.8145 166.039 42.7694C166.039 42.679 166.085 42.5887 166.13 42.4984C166.222 42.408 166.268 42.3629 166.359 42.3629L166.634 41.8209C166.725 41.5951 167.183 41.0983 168.007 40.3305C168.831 39.5175 169.472 39.0207 169.93 38.7046C170.387 38.3884 170.845 38.2529 171.394 38.2529C171.944 38.2529 172.447 38.4336 172.859 38.7497L173.82 39.5627C174.507 40.1498 174.919 40.466 175.011 40.5563L176.338 41.6854L175.743 43.4468C175.514 44.0791 175.423 44.6663 175.423 45.2082C175.423 46.1115 175.651 46.9245 176.155 47.6923C176.292 47.9632 176.43 48.1439 176.613 48.2794C176.796 48.4149 177.07 48.5052 177.391 48.5504C177.894 48.6407 178.169 48.9117 178.169 49.3182C178.169 49.815 178.077 50.2215 177.894 50.4473C177.711 50.7183 177.482 50.8538 177.208 50.9441C176.842 50.9892 176.567 51.0344 176.43 51.0344C175.743 51.0344 175.102 50.8538 174.553 50.4924C174.004 50.1311 173.5 49.544 173.088 48.731C172.997 48.5955 172.859 48.3246 172.722 47.9632C172.585 47.6019 172.493 47.3309 172.447 47.1954C172.264 47.4213 171.989 47.7374 171.623 48.0987C169.197 50.5376 167.229 51.7119 165.718 51.7119C165.215 51.7119 164.757 51.5764 164.345 51.3506C164.391 51.1699 164.162 50.9892 163.842 50.7634ZM168.602 47.1503C168.739 47.06 168.831 46.9245 168.968 46.8341C169.106 46.6986 169.243 46.5632 169.426 46.4277C170.067 45.8857 170.616 45.434 170.982 45.0727C171.349 44.7114 171.715 44.2598 172.081 43.763L172.859 42.4984C172.63 42.0016 172.401 41.6402 172.218 41.4596C172.035 41.2789 171.852 41.1886 171.669 41.1886C171.211 41.1886 170.616 41.5951 169.884 42.408C169.197 43.221 168.328 44.4856 167.32 46.1567C167.046 46.5631 166.863 47.0148 166.68 47.4664C166.497 47.9181 166.405 48.2342 166.359 48.3697C166.771 48.46 167.504 48.0536 168.602 47.1503Z" fill="#F39325"/>
<path d="M189.247 48.7316C189.247 48.2799 189.292 47.8734 189.338 47.4218C189.384 46.925 189.43 46.5637 189.43 46.3379V46.1572V45.7959C189.338 45.3442 189.201 45.1184 188.972 45.1184C188.56 45.1184 187.782 45.5249 186.638 46.3379C185.493 47.1508 184.303 48.0993 183.067 49.2284C182.701 49.6348 182.38 49.9962 182.106 50.3575C181.877 50.6736 181.694 50.8543 181.557 50.8994C181.419 50.9898 181.236 50.9898 181.007 50.9898C180.687 50.9446 180.321 50.7188 179.863 50.2671C179.451 49.8155 179.176 49.409 178.993 49.0929C178.993 48.4606 179.13 47.8283 179.359 47.2411C179.588 46.654 179.954 45.8862 180.412 44.9829C180.641 44.3055 180.916 43.5828 181.236 42.9054C181.602 42.0924 181.831 41.4601 182.014 41.0536C182.152 40.602 182.289 40.1955 182.335 39.6987C182.335 39.6535 182.335 39.6535 182.289 39.6535C182.289 39.5632 182.335 39.4729 182.38 39.4277C182.472 39.3374 182.518 39.3374 182.609 39.3374C182.655 39.2471 182.792 39.2471 183.021 39.2471C183.616 39.2471 184.166 39.4277 184.623 39.7439C185.081 40.06 185.31 40.5568 185.31 41.2343C185.31 41.5956 185.264 41.9118 185.127 42.2279C184.99 42.5441 184.761 43.0409 184.395 43.7635L184.028 44.5313C183.937 44.6668 183.845 44.8926 183.708 45.1636C183.571 45.4346 183.479 45.6152 183.479 45.6604C184.074 45.2539 184.761 44.7571 185.585 44.0796C186.775 43.1312 187.736 42.4086 188.469 41.9118C189.201 41.415 189.796 41.144 190.116 41.144C190.437 41.144 190.849 41.3246 191.398 41.6408C191.947 41.9569 192.268 42.2731 192.359 42.5441C192.359 42.7247 192.359 42.9505 192.314 43.2667C192.268 43.5828 192.268 43.899 192.222 44.1248L192.268 45.2087C192.314 45.3894 192.314 45.6604 192.314 46.0669C192.314 46.7895 192.268 47.3315 192.176 47.6476C192.222 47.6928 192.222 47.6928 192.268 47.7379C192.314 47.7831 192.314 47.8283 192.314 47.8283L192.268 47.9186C192.314 48.1444 192.405 48.5057 192.634 49.0477C192.863 49.5445 193 49.8607 193 49.9058C193 50.1768 192.817 50.4478 192.497 50.764C192.176 51.0801 191.81 51.2608 191.535 51.3059C189.979 51.1704 189.247 50.3575 189.247 48.7316Z" fill="#F39325"/>
</svg>
